<?xml version="1.0" encoding="UTF-8" standalone="no"?>
<!DOCTYPE svg PUBLIC "-//W3C//DTD SVG 1.1//EN"
 "http://www.w3.org/Graphics/SVG/1.1/DTD/svg11.dtd">
<!-- Generated by graphviz version 2.42.4 (0)
 -->
<!-- Pages: 1 -->
<svg width="146pt" height="218pt"
 viewBox="0.00 0.00 146.15 218.00" xmlns="http://www.w3.org/2000/svg" xmlns:xlink="http://www.w3.org/1999/xlink">
<g id="graph0" class="graph" transform="scale(1 1) rotate(0) translate(4 214)">
<polygon fill="white" stroke="transparent" points="-4,4 -4,-214 142.15,-214 142.15,4 -4,4"/>
<!-- root -->
<g id="node1" class="node">
<title>root</title>
<ellipse fill="none" stroke="black" cx="72.15" cy="-192" rx="27" ry="18"/>
</g>
<!-- b -->
<g id="node3" class="node">
<title>b</title>
<ellipse fill="none" stroke="black" cx="72.15" cy="-105" rx="27" ry="18"/>
<text text-anchor="start" x="60.65" y="-102.3" font-family="Times,serif" text-decoration="line-through" font-size="14.00">a|</text>
<text text-anchor="start" x="73.65" y="-102.3" font-family="Times,serif" font-size="14.00">b</text>
</g>
<!-- root&#45;&gt;b -->
<g id="edge1" class="edge">
<title>root&#45;&gt;b</title>
<path fill="none" stroke="black" d="M72.15,-173.8C72.15,-162.16 72.15,-146.55 72.15,-133.24"/>
<polygon fill="black" stroke="black" points="75.65,-133.18 72.15,-123.18 68.65,-133.18 75.65,-133.18"/>
<text text-anchor="middle" x="77.15" y="-144.8" font-family="Times,serif" font-size="14.00">b</text>
</g>
<!-- bc -->
<g id="node2" class="node">
<title>bc</title>
<ellipse fill="none" stroke="black" cx="33.15" cy="-18" rx="33.29" ry="18"/>
<text text-anchor="start" x="15.65" y="-15.3" font-family="Times,serif" text-decoration="line-through" font-size="14.00">a|</text>
<text text-anchor="start" x="28.65" y="-15.3" font-family="Times,serif" font-size="14.00">b|c</text>
</g>
<!-- b&#45;&gt;bc -->
<g id="edge3" class="edge">
<title>b&#45;&gt;bc</title>
<path fill="none" stroke="black" d="M64.63,-87.61C59.05,-75.46 51.34,-58.66 44.95,-44.73"/>
<polygon fill="black" stroke="black" points="48.13,-43.26 40.78,-35.63 41.77,-46.18 48.13,-43.26"/>
<text text-anchor="middle" x="59.15" y="-57.8" font-family="Times,serif" font-size="14.00">c</text>
</g>
<!-- bx -->
<g id="node4" class="node">
<title>bx</title>
<ellipse fill="none" stroke="black" cx="111.15" cy="-18" rx="27" ry="18"/>
<text text-anchor="middle" x="111.15" y="-14.3" font-family="Times,serif" font-size="14.00">b|x</text>
</g>
<!-- b&#45;&gt;bx -->
<g id="edge2" class="edge">
<title>b&#45;&gt;bx</title>
<path fill="none" stroke="black" d="M79.67,-87.61C85.28,-75.38 93.05,-58.44 99.47,-44.46"/>
<polygon fill="black" stroke="black" points="102.66,-45.89 103.65,-35.34 96.3,-42.97 102.66,-45.89"/>
<text text-anchor="middle" x="97.65" y="-57.8" font-family="Times,serif" font-size="14.00">x</text>
</g>
</g>
</svg>
