<?xml version="1.0" encoding="UTF-8" standalone="no"?>
<!DOCTYPE svg PUBLIC "-//W3C//DTD SVG 1.1//EN"
 "http://www.w3.org/Graphics/SVG/1.1/DTD/svg11.dtd">
<!-- Generated by graphviz version 2.42.4 (0)
 -->
<!-- Pages: 1 -->
<svg width="139pt" height="305pt"
 viewBox="0.00 0.00 139.50 305.00" xmlns="http://www.w3.org/2000/svg" xmlns:xlink="http://www.w3.org/1999/xlink">
<g id="graph0" class="graph" transform="scale(1 1) rotate(0) translate(4 301)">
<polygon fill="white" stroke="transparent" points="-4,4 -4,-301 135.5,-301 135.5,4 -4,4"/>
<!-- root -->
<g id="node1" class="node">
<title>root</title>
<ellipse fill="none" stroke="black" cx="68.5" cy="-279" rx="27" ry="18"/>
</g>
<!-- a_ -->
<g id="node5" class="node">
<title>a_</title>
<ellipse fill="none" stroke="black" cx="32.5" cy="-192" rx="27" ry="18"/>
</g>
<!-- root&#45;&gt;a_ -->
<g id="edge1" class="edge">
<title>root&#45;&gt;a_</title>
<path fill="none" stroke="black" d="M61.38,-261.21C56.27,-249.14 49.29,-232.64 43.46,-218.89"/>
<polygon fill="black" stroke="black" points="46.6,-217.31 39.47,-209.47 40.15,-220.04 46.6,-217.31"/>
<text text-anchor="middle" x="58" y="-231.8" font-family="Times,serif" font-size="14.00">a</text>
</g>
<!-- b_ -->
<g id="node6" class="node">
<title>b_</title>
<ellipse fill="none" stroke="black" cx="104.5" cy="-192" rx="27" ry="18"/>
</g>
<!-- root&#45;&gt;b_ -->
<g id="edge2" class="edge">
<title>root&#45;&gt;b_</title>
<path fill="none" stroke="black" d="M75.61,-261.21C80.72,-249.14 87.71,-232.64 93.53,-218.89"/>
<polygon fill="black" stroke="black" points="96.84,-220.04 97.52,-209.47 90.4,-217.31 96.84,-220.04"/>
<text text-anchor="middle" x="93.5" y="-231.8" font-family="Times,serif" font-size="14.00">b</text>
</g>
<!-- abc -->
<g id="node2" class="node">
<title>abc</title>
<ellipse fill="none" stroke="black" cx="32.5" cy="-18" rx="32.49" ry="18"/>
<text text-anchor="middle" x="32.5" y="-14.3" font-family="Times,serif" font-size="14.00">a|b|c</text>
</g>
<!-- ab -->
<g id="node3" class="node">
<title>ab</title>
<ellipse fill="none" stroke="black" cx="32.5" cy="-105" rx="27" ry="18"/>
<text text-anchor="middle" x="32.5" y="-101.3" font-family="Times,serif" font-size="14.00">a|b</text>
</g>
<!-- ab&#45;&gt;abc -->
<g id="edge4" class="edge">
<title>ab&#45;&gt;abc</title>
<path fill="none" stroke="black" d="M32.5,-86.8C32.5,-75.16 32.5,-59.55 32.5,-46.24"/>
<polygon fill="black" stroke="black" points="36,-46.18 32.5,-36.18 29,-46.18 36,-46.18"/>
<text text-anchor="middle" x="36.5" y="-57.8" font-family="Times,serif" font-size="14.00">c</text>
</g>
<!-- bx -->
<g id="node4" class="node">
<title>bx</title>
<ellipse fill="none" stroke="black" cx="104.5" cy="-105" rx="27" ry="18"/>
<text text-anchor="middle" x="104.5" y="-101.3" font-family="Times,serif" font-size="14.00">b|x</text>
</g>
<!-- a_&#45;&gt;ab -->
<g id="edge3" class="edge">
<title>a_&#45;&gt;ab</title>
<path fill="none" stroke="black" d="M32.5,-173.8C32.5,-162.16 32.5,-146.55 32.5,-133.24"/>
<polygon fill="black" stroke="black" points="36,-133.18 32.5,-123.18 29,-133.18 36,-133.18"/>
<text text-anchor="middle" x="37.5" y="-144.8" font-family="Times,serif" font-size="14.00">b</text>
</g>
<!-- b_&#45;&gt;bx -->
<g id="edge5" class="edge">
<title>b_&#45;&gt;bx</title>
<path fill="none" stroke="black" d="M104.5,-173.8C104.5,-162.16 104.5,-146.55 104.5,-133.24"/>
<polygon fill="black" stroke="black" points="108,-133.18 104.5,-123.18 101,-133.18 108,-133.18"/>
<text text-anchor="middle" x="109" y="-144.8" font-family="Times,serif" font-size="14.00">x</text>
</g>
</g>
</svg>
